<svg
      xmlns="http://www.w3.org/2000/svg"
      width="1320"
      height="274"
      fill="none"
      version="1.1"
      viewBox="0 0 1320 274"
    >
      <g
        fill="#e6e6e6"
        ariaLabel="krueckl.de"
        fontSize="302.362"
        fontStretch="normal"
        fontStyle="normal"
        fontVariant="normal"
        fontWeight="normal"
        transform="matrix(1 0 0 -1 0 274)"
      >
        <path
          d="M53.161 27.999H26.856v214.677H53.16v-55.03l13.606-15.118 50.192 70.148h32.655l-64.403-86.174 56.24-60.17h-31.748l-43.238 50.495c-4.233 5.14-9.07 11.49-12.7 16.63h-.604z"
 
        ></path>
        <path
          d="M173.803 242.676h26.608v-78.01c0-4.233.302-8.768.907-12.397 3.628-19.956 16.932-33.864 35.679-33.864 3.628 0 6.35 0 9.07.604V93.913c-2.418-.302-4.535-.604-7.256-.604-17.84 0-34.167 12.397-40.82 32.05h-.906l-1.21-29.027h-23.282c.908 13.607 1.21 28.422 1.21 45.657z"
 
        ></path>
        <path
          d="M395.132 96.332h-26.608v89.5c0 5.14-.907 9.977-2.419 13.606-4.838 12.094-17.235 24.491-35.074 24.491-23.887 0-32.655-19.049-32.655-46.866v-80.73h-26.608V181.9c0 51.099 27.515 64.1 50.495 64.1 26.003 0 41.725-15.42 48.377-27.212h.605l1.512 23.887h23.584c-.907-11.49-1.21-24.794-1.21-40.215z"
 
        ></path>
        <path
          d="M556.895 174.342c.605-3.024.907-6.955.907-12.397 0-26.91-12.397-68.636-60.472-68.636-42.633 0-68.636 34.469-68.636 78.614S455.604 246 500.656 246c23.282 0 39.61-5.14 48.982-9.373l-4.837-19.049c-9.676 4.234-21.468 7.56-40.517 7.56-26.91 0-49.587-14.816-50.192-50.797zm-102.5-19.05c2.116-18.443 13.606-42.934 40.818-42.934 29.934 0 37.19 26.305 36.888 42.935z"
 
        ></path>
        <path
          d="M690.539 217.58c-7.56 3.325-17.537 6.954-32.655 6.954-29.027 0-50.797-20.863-50.797-54.728 0-30.236 18.142-55.332 51.704-55.332 14.513 0 24.491 3.628 30.84 6.954l6.048-20.258c-7.257-3.93-21.165-7.861-36.888-7.861-47.773 0-78.614 32.957-78.614 78.01 0 44.749 28.724 74.682 72.869 74.682 19.654 0 35.074-5.14 42.028-8.466z"
 
        ></path>
        <path
          d="M752.523 27.999h-26.305v214.677h26.305v-55.03l13.606-15.118 50.192 70.148h32.656l-64.404-86.174 56.24-60.17h-31.748l-43.238 50.495c-4.233 5.14-9.07 11.49-12.7 16.63h-.604z"
 
        ></path>
        <path d="M873.165 242.676h26.608V27.999h-26.608z"></path>
        <path
          d="M952.686 246.001c11.187 0 18.444-8.163 18.444-19.048 0-11.188-7.257-19.05-17.84-19.05-10.582 0-18.141 8.165-18.141 19.05 0 10.885 7.256 19.048 17.537 19.048z"
 
        ></path>
        <path
          d="M1103.866 27.999v87.382h-.605c-6.652-11.49-21.467-22.072-44.144-22.072-35.377 0-65.915 29.631-65.613 78.311 0 44.448 27.515 74.382 62.891 74.382 23.887 0 41.424-12.397 49.285-28.725h.907l1.21 25.399h23.584c-.605-9.978-1.21-24.794-1.21-37.796V28zm0 153.297c0 4.233-.302 7.861-1.21 11.49-4.837 19.653-21.165 31.748-39.004 31.748-28.422 0-43.238-24.492-43.238-54.123 0-32.05 16.328-56.24 43.843-56.24 19.956 0 34.469 13.91 38.4 30.54.907 3.325 1.21 7.86 1.21 11.187z"
 
        ></path>
        <path
          d="M1292.237 174.342c.605-3.024.907-6.955.907-12.397 0-26.91-12.396-68.636-60.472-68.636-42.633 0-68.636 34.469-68.636 78.614S1190.946 246 1235.998 246c23.282 0 39.61-5.14 48.983-9.373l-4.838-19.049c-9.676 4.234-21.468 7.56-40.517 7.56-26.91 0-49.587-14.816-50.192-50.797zm-102.5-19.05c2.116-18.443 13.606-42.934 40.818-42.934 29.934 0 37.191 26.305 36.889 42.935z"
 
        ></path>
      </g>
    </svg>