<?xml version="1.0" encoding="UTF-8" standalone="no"?>
<svg
   xmlns:dc="http://purl.org/dc/elements/1.1/"
   xmlns:cc="http://creativecommons.org/ns#"
   xmlns:rdf="http://www.w3.org/1999/02/22-rdf-syntax-ns#"
   xmlns:svg="http://www.w3.org/2000/svg"
   xmlns="http://www.w3.org/2000/svg"
   xmlns:sodipodi="http://sodipodi.sourceforge.net/DTD/sodipodi-0.dtd"
   xmlns:inkscape="http://www.inkscape.org/namespaces/inkscape"
   width="1320"
   height="274"
   viewBox="0 0 1320 274"
   fill="none"
   version="1.1"
   id="svg4"
   sodipodi:docname="url.svg"
   inkscape:version="1.0.1 (3bc2e813f5, 2020-09-07)">
  <metadata
     id="metadata10">
    <rdf:RDF>
      <cc:Work
         rdf:about="">
        <dc:format>image/svg+xml</dc:format>
        <dc:type
           rdf:resource="http://purl.org/dc/dcmitype/StillImage" />
        <dc:title></dc:title>
      </cc:Work>
    </rdf:RDF>
  </metadata>
  <defs
     id="defs8" />
  <sodipodi:namedview
     pagecolor="#ffffff"
     bordercolor="#666666"
     borderopacity="1"
     objecttolerance="10"
     gridtolerance="10"
     guidetolerance="10"
     inkscape:pageopacity="0"
     inkscape:pageshadow="2"
     inkscape:window-width="2068"
     inkscape:window-height="1044"
     id="namedview6"
     showgrid="false"
     inkscape:zoom="0.39944795"
     inkscape:cx="1401.5964"
     inkscape:cy="-36.863556"
     inkscape:window-x="244"
     inkscape:window-y="134"
     inkscape:window-maximized="0"
     inkscape:current-layer="svg4"
     inkscape:document-rotation="0" />
  <g
     aria-label="krueckl.de"
     id="text836"
     style="font-size:302.362px;line-height:1.25;font-family:sans-serif;fill:#e6e6e6"
     transform="matrix(1,0,0,-1,0,274)">
    <path
       d="M 53.161011,27.998502 H 26.855518 V 242.67552 h 26.305493 v -55.02988 l 13.60629,-15.1181 50.192089,70.14798 h 32.6551 L 85.211383,156.50235 141.45072,96.332314 H 109.70271 L 66.464939,146.82677 c -4.233068,5.14015 -9.07086,11.48975 -12.699204,16.62991 h -0.604724 z"
       style="font-style:normal;font-variant:normal;font-weight:normal;font-stretch:normal;font-size:302.362px;font-family:'Myriad Pro';-inkscape-font-specification:'Myriad Pro';fill:#e6e6e6"
       id="path842" />
    <path
       d="m 173.80289,242.67552 h 26.60786 v -78.00939 c 0,-4.23307 0.30236,-8.7685 0.90708,-12.39685 3.62835,-19.95589 16.93227,-33.86454 35.67872,-33.86454 3.62834,0 6.3496,0 9.07086,0.60472 V 93.913418 c -2.4189,-0.302362 -4.53543,-0.604724 -7.25669,-0.604724 -17.83936,0 -34.16691,12.396846 -40.81887,32.050376 h -0.90709 l -1.20944,-29.026756 h -23.28188 c 0.90709,13.606286 1.20945,28.422026 1.20945,45.656666 z"
       style="font-style:normal;font-variant:normal;font-weight:normal;font-stretch:normal;font-size:302.362px;font-family:'Myriad Pro';-inkscape-font-specification:'Myriad Pro';fill:#e6e6e6"
       id="path844" />
    <path
       d="m 395.13177,96.332314 h -26.60786 v 89.499156 c 0,5.14015 -0.90708,9.97794 -2.41889,13.60629 -4.8378,12.09448 -17.23464,24.49132 -35.074,24.49132 -23.88659,0 -32.65509,-19.04881 -32.65509,-46.86611 V 96.332314 h -26.60786 v 85.568446 c 0,51.09918 27.51494,64.10074 50.49446,64.10074 26.00313,0 41.72595,-15.42046 48.37792,-27.21258 h 0.60472 l 1.51181,23.8866 h 23.58424 c -0.90709,-11.48975 -1.20945,-24.79368 -1.20945,-40.21414 z"
       style="font-style:normal;font-variant:normal;font-weight:normal;font-stretch:normal;font-size:302.362px;font-family:'Myriad Pro';-inkscape-font-specification:'Myriad Pro';fill:#e6e6e6"
       id="path846" />
    <path
       d="m 556.89505,174.34171 c 0.60472,-3.02362 0.90709,-6.95433 0.90709,-12.39684 0,-26.91022 -12.39685,-68.636176 -60.4724,-68.636176 -42.63305,0 -68.63618,34.469266 -68.63618,78.614116 0,44.14486 26.91022,74.07869 71.96216,74.07869 23.28187,0 39.60942,-5.14015 48.98264,-9.37322 l -4.83779,-19.0488 c -9.67558,4.23306 -21.4677,7.55905 -40.51651,7.55905 -26.91022,0 -49.58737,-14.81574 -50.19209,-50.79682 z M 454.39433,155.2929 c 2.11654,-18.44408 13.60629,-42.9354 40.81887,-42.9354 29.93384,0 37.19053,26.30549 36.88817,42.9354 z"
       style="font-style:normal;font-variant:normal;font-weight:normal;font-stretch:normal;font-size:302.362px;font-family:'Myriad Pro';-inkscape-font-specification:'Myriad Pro';fill:#e6e6e6"
       id="path848" />
    <path
       d="m 690.53891,217.57948 c -7.55905,3.32598 -17.537,6.95432 -32.6551,6.95432 -29.02675,0 -50.79681,-20.86298 -50.79681,-54.72752 0,-30.2362 18.14172,-55.33225 51.7039,-55.33225 14.51337,0 24.49132,3.62835 30.84092,6.95433 l 6.04724,-20.25825 c -7.25669,-3.93071 -21.16534,-7.861416 -36.88816,-7.861416 -47.7732,0 -78.61412,32.957456 -78.61412,78.009396 0,44.74958 28.72439,74.68341 72.86924,74.68341 19.65353,0 35.07399,-5.14015 42.02832,-8.46613 z"
       style="font-style:normal;font-variant:normal;font-weight:normal;font-stretch:normal;font-size:302.362px;font-family:'Myriad Pro';-inkscape-font-specification:'Myriad Pro';fill:#e6e6e6"
       id="path850" />
    <path
       d="M 752.52307,27.998502 H 726.21758 V 242.67552 h 26.30549 v -55.02988 l 13.60629,-15.1181 50.19209,70.14798 h 32.6551 L 784.57344,156.50235 840.81278,96.332314 H 809.06477 L 765.827,146.82677 c -4.23307,5.14015 -9.07086,11.48975 -12.6992,16.62991 h -0.60473 z"
       style="font-style:normal;font-variant:normal;font-weight:normal;font-stretch:normal;font-size:302.362px;font-family:'Myriad Pro';-inkscape-font-specification:'Myriad Pro';fill:#e6e6e6"
       id="path852" />
    <path
       d="m 873.16497,242.67552 h 26.60785 V 27.998502 h -26.60785 z"
       style="font-style:normal;font-variant:normal;font-weight:normal;font-stretch:normal;font-size:302.362px;font-family:'Myriad Pro';-inkscape-font-specification:'Myriad Pro';fill:#e6e6e6"
       id="path854" />
    <path
       d="m 952.68555,246.0015 c 11.18739,0 18.44408,-8.16377 18.44408,-19.0488 0,-11.1874 -7.25669,-19.04881 -17.83936,-19.04881 -10.58267,0 -18.14172,8.16378 -18.14172,19.04881 0,10.88503 7.25669,19.0488 17.537,19.0488 z"
       style="font-style:normal;font-variant:normal;font-weight:normal;font-stretch:normal;font-size:302.362px;font-family:'Myriad Pro';-inkscape-font-specification:'Myriad Pro';fill:#e6e6e6"
       id="path856" />
    <path
       d="m 1103.8662,27.998502 v 87.382618 h -0.6047 c -6.652,-11.48976 -21.4677,-22.072426 -44.1449,-22.072426 -35.3764,0 -65.91491,29.631476 -65.61255,78.311756 0,44.44722 27.51495,74.38105 62.89125,74.38105 23.8866,0 41.4236,-12.39684 49.2851,-28.72439 h 0.907 l 1.2095,25.39841 h 23.5842 c -0.6047,-9.97794 -1.2094,-24.79368 -1.2094,-37.79525 V 27.998502 Z m 0,153.297538 c 0,4.23306 -0.3024,7.86141 -1.2095,11.48975 -4.8378,19.65353 -21.1653,31.74801 -39.0047,31.74801 -28.422,0 -43.2377,-24.49132 -43.2377,-54.1228 0,-32.05037 16.3275,-56.23933 43.8425,-56.23933 19.9558,0 34.4692,13.90865 38.3999,30.53856 0.9071,3.32599 1.2095,7.86142 1.2095,11.1874 z"
       style="font-style:normal;font-variant:normal;font-weight:normal;font-stretch:normal;font-size:302.362px;font-family:'Myriad Pro';-inkscape-font-specification:'Myriad Pro';fill:#e6e6e6"
       id="path858" />
    <path
       d="m 1292.2374,174.34171 c 0.6047,-3.02362 0.9071,-6.95433 0.9071,-12.39684 0,-26.91022 -12.3969,-68.636176 -60.4724,-68.636176 -42.6331,0 -68.6362,34.469266 -68.6362,78.614116 0,44.14486 26.9102,74.07869 71.9622,74.07869 23.2818,0 39.6094,-5.14015 48.9826,-9.37322 l -4.8378,-19.0488 c -9.6756,4.23306 -21.4677,7.55905 -40.5165,7.55905 -26.9102,0 -49.5874,-14.81574 -50.1921,-50.79682 z M 1189.7367,155.2929 c 2.1165,-18.44408 13.6063,-42.9354 40.8188,-42.9354 29.9339,0 37.1906,26.30549 36.8882,42.9354 z"
       style="font-style:normal;font-variant:normal;font-weight:normal;font-stretch:normal;font-size:302.362px;font-family:'Myriad Pro';-inkscape-font-specification:'Myriad Pro';fill:#e6e6e6"
       id="path860" />
  </g>
</svg>
